<svg viewBox="-400 -400 800 800" xmlns="http://www.w3.org/2000/svg">
<rect fill="white" height="1200" width="1200" x="-400" y="-400"/>
<g>
<line stroke="black" x1="0" x2="-0.000000000000018369701987210297" y1="0" y2="-100"/>
<line stroke="black" x1="-0.000000000000018369701987210297" x2="99.99999999999999" y1="-100" y2="-100"/>
<line stroke="black" x1="99.99999999999999" x2="99.99999999999999" y1="-100" y2="0"/>
<line stroke="black" x1="99.99999999999999" x2="-0.000000000000014210854715202004" y1="0" y2="0.000000000000012246467991473532"/>
<line stroke="black" x1="-0.000000000000014210854715202004" x2="17.364817766692983" y1="0.000000000000012246467991473532" y2="-98.4807753012208"/>
<line stroke="black" x1="17.364817766692983" x2="115.84559306791378" y1="-98.4807753012208" y2="-81.11595753452777"/>
<line stroke="black" x1="115.84559306791378" x2="98.48077530122075" y1="-81.11595753452777" y2="17.364817766693037"/>
<line stroke="black" x1="98.48077530122075" x2="-0.00000000000005684341886080802" y1="17.364817766693037" y2="-0.000000000000010658141036401503"/>
<line stroke="black" x1="-0.00000000000005684341886080802" x2="34.20201433256684" y1="-0.000000000000010658141036401503" y2="-93.96926207859084"/>
<line stroke="black" x1="34.20201433256684" x2="128.1712764111577" y1="-93.96926207859084" y2="-59.767247746023976"/>
<line stroke="black" x1="128.1712764111577" x2="93.96926207859082" y1="-59.767247746023976" y2="34.20201433256687"/>
<line stroke="black" x1="93.96926207859082" x2="-0.00000000000002842170943040401" y1="34.20201433256687" y2="0"/>
<line stroke="black" x1="-0.00000000000002842170943040401" x2="49.999999999999986" y1="0" y2="-86.60254037844386"/>
<line stroke="black" x1="49.999999999999986" x2="136.60254037844385" y1="-86.60254037844386" y2="-36.60254037844387"/>
<line stroke="black" x1="136.60254037844385" x2="86.60254037844388" y1="-36.60254037844387" y2="50.00000000000001"/>
<line stroke="black" x1="86.60254037844388" x2="0.000000000000014210854715202004" y1="50.00000000000001" y2="-0.000000000000007105427357601002"/>
<line stroke="black" x1="0.000000000000014210854715202004" x2="64.27876096865394" y1="-0.000000000000007105427357601002" y2="-76.60444431189782"/>
<line stroke="black" x1="64.27876096865394" x2="140.88320528055175" y1="-76.60444431189782" y2="-12.325683343243895"/>
<line stroke="black" x1="140.88320528055175" x2="76.60444431189781" y1="-12.325683343243895" y2="64.27876096865391"/>
<line stroke="black" x1="76.60444431189781" x2="0" y1="64.27876096865391" y2="-0.000000000000014210854715202004"/>
<line stroke="black" x1="0" x2="76.60444431189778" y1="-0.000000000000014210854715202004" y2="-64.27876096865397"/>
<line stroke="black" x1="76.60444431189778" x2="140.88320528055172" y1="-64.27876096865397" y2="12.325683343243838"/>
<line stroke="black" x1="140.88320528055172" x2="64.27876096865393" y1="12.325683343243838" y2="76.60444431189778"/>
<line stroke="black" x1="64.27876096865393" x2="-0.000000000000014210854715202004" y1="76.60444431189778" y2="-0.000000000000014210854715202004"/>
<line stroke="black" x1="-0.000000000000014210854715202004" x2="86.60254037844382" y1="-0.000000000000014210854715202004" y2="-50.00000000000006"/>
<line stroke="black" x1="86.60254037844382" x2="136.60254037844385" y1="-50.00000000000006" y2="36.602540378443805"/>
<line stroke="black" x1="136.60254037844385" x2="49.99999999999997" y1="36.602540378443805" y2="86.60254037844379"/>
<line stroke="black" x1="49.99999999999997" x2="-0.00000000000007105427357601002" y1="86.60254037844379" y2="-0.00000000000004263256414560601"/>
<line stroke="black" x1="-0.00000000000007105427357601002" x2="93.96926207859077" y1="-0.00000000000004263256414560601" y2="-34.202014332566904"/>
<line stroke="black" x1="93.96926207859077" x2="128.17127641115766" y1="-34.202014332566904" y2="59.767247746023926"/>
<line stroke="black" x1="128.17127641115766" x2="34.20201433256683" y1="59.767247746023926" y2="93.96926207859082"/>
<line stroke="black" x1="34.20201433256683" x2="-0.000000000000021316282072803006" y1="93.96926207859082" y2="-0.00000000000002842170943040401"/>
<line stroke="black" x1="-0.000000000000021316282072803006" x2="98.48077530122077" y1="-0.00000000000002842170943040401" y2="-17.36481776669307"/>
<line stroke="black" x1="98.48077530122077" x2="115.84559306791381" y1="-17.36481776669307" y2="81.11595753452774"/>
<line stroke="black" x1="115.84559306791381" x2="17.364817766693008" y1="81.11595753452774" y2="98.48077530122076"/>
<line stroke="black" x1="17.364817766693008" x2="-0.000000000000024868995751603507" y1="98.48077530122076" y2="-0.00000000000004263256414560601"/>
<line stroke="black" x1="-0.000000000000024868995751603507" x2="99.99999999999997" y1="-0.00000000000004263256414560601" y2="-0.00000000000004263256414560601"/>
<line stroke="black" x1="99.99999999999997" x2="99.99999999999997" y1="-0.00000000000004263256414560601" y2="99.99999999999996"/>
<line stroke="black" x1="99.99999999999997" x2="-0.00000000000002842170943040401" y1="99.99999999999996" y2="99.99999999999997"/>
<line stroke="black" x1="-0.00000000000002842170943040401" x2="-0.000000000000046791411417614305" y1="99.99999999999997" y2="-0.00000000000002842170943040401"/>
<line stroke="black" x1="-0.000000000000046791411417614305" x2="98.48077530122076" y1="-0.00000000000002842170943040401" y2="17.364817766693005"/>
<line stroke="black" x1="98.48077530122076" x2="81.11595753452772" y1="17.364817766693005" y2="115.84559306791381"/>
<line stroke="black" x1="81.11595753452772" x2="-17.36481776669308" y1="115.84559306791381" y2="98.48077530122076"/>
<line stroke="black" x1="-17.36481776669308" x2="-0.00000000000008171241461241152" y1="98.48077530122076" y2="-0.00000000000005684341886080802"/>
<line stroke="black" x1="-0.00000000000008171241461241152" x2="93.96926207859076" y1="-0.00000000000005684341886080802" y2="34.20201433256681"/>
<line stroke="black" x1="93.96926207859076" x2="59.76724774602389" y1="34.20201433256681" y2="128.17127641115766"/>
<line stroke="black" x1="59.76724774602389" x2="-34.202014332566954" y1="128.17127641115766" y2="93.96926207859079"/>
<line stroke="black" x1="-34.202014332566954" x2="-0.00000000000005684341886080802" y1="93.96926207859079" y2="-0.00000000000004263256414560601"/>
<line stroke="black" x1="-0.00000000000005684341886080802" x2="86.60254037844382" y1="-0.00000000000004263256414560601" y2="49.99999999999995"/>
<line stroke="black" x1="86.60254037844382" x2="36.60254037844384" y1="49.99999999999995" y2="136.60254037844382"/>
<line stroke="black" x1="36.60254037844384" x2="-50.00000000000002" y1="136.60254037844382" y2="86.6025403784438"/>
<line stroke="black" x1="-50.00000000000002" x2="-0.000000000000007105427357601002" y1="86.6025403784438" y2="-0.00000000000005684341886080802"/>
<line stroke="black" x1="-0.000000000000007105427357601002" x2="76.6044443118978" y1="-0.00000000000005684341886080802" y2="64.27876096865387"/>
<line stroke="black" x1="76.6044443118978" x2="12.325683343243853" y1="64.27876096865387" y2="140.8832052805517"/>
<line stroke="black" x1="12.325683343243853" x2="-64.27876096865396" y1="140.8832052805517" y2="76.60444431189777"/>
<line stroke="black" x1="-64.27876096865396" x2="-0.00000000000002842170943040401" y1="76.60444431189777" y2="-0.00000000000004263256414560601"/>
<line stroke="black" x1="-0.00000000000002842170943040401" x2="64.27876096865391" y1="-0.00000000000004263256414560601" y2="76.60444431189777"/>
<line stroke="black" x1="64.27876096865391" x2="-12.325683343243881" y1="76.60444431189777" y2="140.8832052805517"/>
<line stroke="black" x1="-12.325683343243881" x2="-76.60444431189782" y1="140.8832052805517" y2="64.2787609686539"/>
<line stroke="black" x1="-76.60444431189782" x2="-0.00000000000004263256414560601" y1="64.2787609686539" y2="-0.00000000000005684341886080802"/>
<line stroke="black" x1="-0.00000000000004263256414560601" x2="49.99999999999997" y1="-0.00000000000005684341886080802" y2="86.6025403784438"/>
<line stroke="black" x1="49.99999999999997" x2="-36.602540378443905" y1="86.6025403784438" y2="136.6025403784438"/>
<line stroke="black" x1="-36.602540378443905" x2="-86.60254037844395" y1="136.6025403784438" y2="49.99999999999996"/>
<line stroke="black" x1="-86.60254037844395" x2="-0.00000000000011368683772161603" y1="49.99999999999996" y2="-0.00000000000008526512829121202"/>
<line stroke="black" x1="-0.00000000000011368683772161603" x2="34.20201433256677" y1="-0.00000000000008526512829121202" y2="93.96926207859075"/>
<line stroke="black" x1="34.20201433256677" x2="-59.76724774602406" y1="93.96926207859075" y2="128.17127641115763"/>
<line stroke="black" x1="-59.76724774602406" x2="-93.96926207859092" y1="128.17127641115763" y2="34.20201433256679"/>
<line stroke="black" x1="-93.96926207859092" x2="-0.00000000000007105427357601002" y1="34.20201433256679" y2="-0.00000000000007105427357601002"/>
<line stroke="black" x1="-0.00000000000007105427357601002" x2="17.36481776669297" y1="-0.00000000000007105427357601002" y2="98.48077530122073"/>
<line stroke="black" x1="17.36481776669297" x2="-81.11595753452784" y1="98.48077530122073" y2="115.84559306791375"/>
<line stroke="black" x1="-81.11595753452784" x2="-98.48077530122087" y1="115.84559306791375" y2="17.36481776669295"/>
<line stroke="black" x1="-98.48077530122087" x2="-0.00000000000007105427357601002" y1="17.36481776669295" y2="-0.00000000000008881784197001252"/>
<line stroke="black" x1="-0.00000000000007105427357601002" x2="-0.00000000000006493103958027325" y1="-0.00000000000008881784197001252" y2="99.99999999999991"/>
<line stroke="black" x1="-0.00000000000006493103958027325" x2="-100.00000000000007" y1="99.99999999999991" y2="99.99999999999993"/>
<line stroke="black" x1="-100.00000000000007" x2="-100.00000000000009" y1="99.99999999999993" y2="-0.00000000000007105427357601002"/>
<line stroke="black" x1="-100.00000000000009" x2="-0.00000000000008526512829121202" y1="-0.00000000000007105427357601002" y2="-0.00000000000007105427357601002"/>
<line stroke="black" x1="-0.00000000000008526512829121202" x2="-17.364817766693115" y1="-0.00000000000007105427357601002" y2="98.48077530122073"/>
<line stroke="black" x1="-17.364817766693115" x2="-115.84559306791391" y1="98.48077530122073" y2="81.11595753452768"/>
<line stroke="black" x1="-115.84559306791391" x2="-98.48077530122092" y1="81.11595753452768" y2="-17.364817766693136"/>
<line stroke="black" x1="-98.48077530122092" x2="-0.00000000000011368683772161603" y1="-17.364817766693136" y2="-0.00000000000010302869668521453"/>
<line stroke="black" x1="-0.00000000000011368683772161603" x2="-34.20201433256698" y1="-0.00000000000010302869668521453" y2="93.96926207859075"/>
<line stroke="black" x1="-34.20201433256698" x2="-128.17127641115783" y1="93.96926207859075" y2="59.76724774602388"/>
<line stroke="black" x1="-128.17127641115783" x2="-93.96926207859093" y1="59.76724774602388" y2="-34.202014332566954"/>
<line stroke="black" x1="-93.96926207859093" x2="-0.00000000000008526512829121202" y1="-34.202014332566954" y2="-0.00000000000008526512829121202"/>
<line stroke="black" x1="-0.00000000000008526512829121202" x2="-50.000000000000064" y1="-0.00000000000008526512829121202" y2="86.60254037844379"/>
<line stroke="black" x1="-50.000000000000064" x2="-136.60254037844393" y1="86.60254037844379" y2="36.60254037844378"/>
<line stroke="black" x1="-136.60254037844393" x2="-86.60254037844392" y1="36.60254037844378" y2="-50.000000000000085"/>
<line stroke="black" x1="-86.60254037844392" x2="-0.00000000000004263256414560601" y1="-50.000000000000085" y2="-0.00000000000009237055564881302"/>
<line stroke="black" x1="-0.00000000000004263256414560601" x2="-64.27876096865398" y1="-0.00000000000009237055564881302" y2="76.60444431189771"/>
<line stroke="black" x1="-64.27876096865398" x2="-140.8832052805518" y1="76.60444431189771" y2="12.325683343243782"/>
<line stroke="black" x1="-140.8832052805518" x2="-76.60444431189788" y1="12.325683343243782" y2="-64.27876096865403"/>
<line stroke="black" x1="-76.60444431189788" x2="-0.00000000000007105427357601002" y1="-64.27876096865403" y2="-0.00000000000009947598300641403"/>
<line stroke="black" x1="-0.00000000000007105427357601002" x2="-76.60444431189786" y1="-0.00000000000009947598300641403" y2="64.27876096865384"/>
<line stroke="black" x1="-76.60444431189786" x2="-140.8832052805518" y1="64.27876096865384" y2="-12.325683343243952"/>
<line stroke="black" x1="-140.8832052805518" x2="-64.27876096865403" y1="-12.325683343243952" y2="-76.60444431189791"/>
<line stroke="black" x1="-64.27876096865403" x2="-0.00000000000008526512829121202" y1="-76.60444431189791" y2="-0.00000000000009947598300641403"/>
<line stroke="black" x1="-0.00000000000008526512829121202" x2="-86.60254037844396" y1="-0.00000000000009947598300641403" y2="49.99999999999989"/>
<line stroke="black" x1="-86.60254037844396" x2="-136.60254037844402" y1="49.99999999999989" y2="-36.60254037844394"/>
<line stroke="black" x1="-136.60254037844402" x2="-50.000000000000185" y1="-36.60254037844394" y2="-86.60254037844399"/>
<line stroke="black" x1="-50.000000000000185" x2="-0.00000000000017053025658242404" y1="-86.60254037844399" y2="-0.00000000000012789769243681803"/>
<line stroke="black" x1="-0.00000000000017053025658242404" x2="-93.969262078591" y1="-0.00000000000012789769243681803" y2="34.20201433256676"/>
<line stroke="black" x1="-93.969262078591" x2="-128.17127641115786" y1="34.20201433256676" y2="-59.76724774602408"/>
<line stroke="black" x1="-128.17127641115786" x2="-34.20201433256702" y1="-59.76724774602408" y2="-93.96926207859094"/>
<line stroke="black" x1="-34.20201433256702" x2="-0.00000000000013500311979441904" y1="-93.96926207859094" y2="-0.00000000000011368683772161603"/>
<line stroke="black" x1="-0.00000000000013500311979441904" x2="-98.48077530122094" y1="-0.00000000000011368683772161603" y2="17.364817766692912"/>
<line stroke="black" x1="-98.48077530122094" x2="-115.84559306791398" y1="17.364817766692912" y2="-81.1159575345279"/>
<line stroke="black" x1="-115.84559306791398" x2="-17.36481776669318" y1="-81.1159575345279" y2="-98.48077530122093"/>
<line stroke="black" x1="-17.36481776669318" x2="-0.00000000000013855583347321954" y1="-98.48077530122093" y2="-0.00000000000012789769243681803"/>
<line stroke="black" x1="-0.00000000000013855583347321954" x2="-100.00000000000014" y1="-0.00000000000012789769243681803" y2="-0.0000000000001156512244453445"/>
<line stroke="black" x1="-100.00000000000014" x2="-100.00000000000016" y1="-0.0000000000001156512244453445" y2="-100.00000000000011"/>
<line stroke="black" x1="-100.00000000000016" x2="-0.00000000000015631940186722204" y1="-100.00000000000011" y2="-100.00000000000011"/>
<line stroke="black" x1="-0.00000000000015631940186722204" x2="-0.00000000000015019616787148528" y1="-100.00000000000011" y2="-0.00000000000011368683772161603"/>
<line stroke="black" x1="-0.00000000000015019616787148528" x2="-98.48077530122096" y1="-0.00000000000011368683772161603" y2="-17.36481776669316"/>
<line stroke="black" x1="-98.48077530122096" x2="-81.11595753452796" y1="-17.36481776669316" y2="-115.84559306791398"/>
<line stroke="black" x1="-81.11595753452796" x2="17.364817766692838" y1="-115.84559306791398" y2="-98.48077530122094"/>
<line stroke="black" x1="17.364817766692838" x2="-0.00000000000019184653865522705" y1="-98.48077530122094" y2="-0.00000000000014210854715202004"/>
<line stroke="black" x1="-0.00000000000019184653865522705" x2="-93.96926207859104" y1="-0.00000000000014210854715202004" y2="-34.20201433256701"/>
<line stroke="black" x1="-93.96926207859104" x2="-59.76724774602415" y1="-34.20201433256701" y2="-128.17127641115783"/>
<line stroke="black" x1="-59.76724774602415" x2="34.2020143325667" y1="-128.17127641115783" y2="-93.96926207859096"/>
<line stroke="black" x1="34.2020143325667" x2="-0.00000000000017053025658242404" y1="-93.96926207859096" y2="-0.00000000000011368683772161603"/>
<line stroke="black" x1="-0.00000000000017053025658242404" x2="-86.60254037844403" y1="-0.00000000000011368683772161603" y2="-50.00000000000013"/>
<line stroke="black" x1="-86.60254037844403" x2="-36.60254037844402" y1="-50.00000000000013" y2="-136.602540378444"/>
<line stroke="black" x1="-36.60254037844402" x2="49.99999999999986" y1="-136.602540378444" y2="-86.60254037844399"/>
<line stroke="black" x1="49.99999999999986" x2="-0.00000000000012079226507921703" y1="-86.60254037844399" y2="-0.00000000000011368683772161603"/>
<line stroke="black" x1="-0.00000000000012079226507921703" x2="-76.60444431189794" y1="-0.00000000000011368683772161603" y2="-64.27876096865404"/>
<line stroke="black" x1="-76.60444431189794" x2="-12.325683343244009" y1="-64.27876096865404" y2="-140.88320528055186"/>
<line stroke="black" x1="-12.325683343244009" x2="64.2787609686538" y1="-140.88320528055186" y2="-76.60444431189794"/>
<line stroke="black" x1="64.2787609686538" x2="-0.00000000000014210854715202004" y1="-76.60444431189794" y2="-0.00000000000012789769243681803"/>
<line stroke="black" x1="-0.00000000000014210854715202004" x2="-64.27876096865408" y1="-0.00000000000012789769243681803" y2="-76.60444431189792"/>
<line stroke="black" x1="-64.27876096865408" x2="12.325683343243696" y1="-76.60444431189792" y2="-140.88320528055186"/>
<line stroke="black" x1="12.325683343243696" x2="76.60444431189764" y1="-140.88320528055186" y2="-64.27876096865405"/>
<line stroke="black" x1="76.60444431189764" x2="-0.00000000000015631940186722204" y1="-64.27876096865405" y2="-0.00000000000011368683772161603"/>
<line stroke="black" x1="-0.00000000000015631940186722204" x2="-50.0000000000002" y1="-0.00000000000011368683772161603" y2="-86.60254037844395"/>
<line stroke="black" x1="-50.0000000000002" x2="36.602540378443635" y1="-86.60254037844395" y2="-136.602540378444"/>
<line stroke="black" x1="36.602540378443635" x2="86.60254037844365" y1="-136.602540378444" y2="-50.00000000000013"/>
<line stroke="black" x1="86.60254037844365" x2="-0.00000000000022737367544323206" y1="-50.00000000000013" y2="-0.00000000000013500311979441904"/>
<line stroke="black" x1="-0.00000000000022737367544323206" x2="-34.20201433256708" y1="-0.00000000000013500311979441904" y2="-93.96926207859099"/>
<line stroke="black" x1="-34.20201433256708" x2="59.76724774602376" y1="-93.96926207859099" y2="-128.17127641115786"/>
<line stroke="black" x1="59.76724774602376" x2="93.96926207859065" y1="-128.17127641115786" y2="-34.20201433256703"/>
<line stroke="black" x1="93.96926207859065" x2="-0.00000000000018474111129762605" y1="-34.20201433256703" y2="-0.00000000000014210854715202004"/>
<line stroke="black" x1="-0.00000000000018474111129762605" x2="-17.364817766693218" y1="-0.00000000000014210854715202004" y2="-98.48077530122094"/>
<line stroke="black" x1="-17.364817766693218" x2="81.11595753452758" y1="-98.48077530122094" y2="-115.84559306791398"/>
<line stroke="black" x1="81.11595753452758" x2="98.48077530122062" y1="-115.84559306791398" y2="-17.36481776669318"/>
<line stroke="black" x1="98.48077530122062" x2="-0.00000000000018474111129762605" y1="-17.36481776669318" y2="-0.00000000000015276668818842154"/>
</g>
</svg>